<svg id="Layer_5" enable-background="new 0 0 64 64" height="512" viewBox="0 0 64 64" width="512" xmlns="http://www.w3.org/2000/svg"><g><g><path d="m35 31v-9.9c0-1.79-.76-3.42-2-4.57v-14.53h26v28.13c-.32-.09-.65-.13-1-.13h-8.34c-1.06 0-2.08.42-2.83 1.17l-2.83 2.83h-12c1.66 0 3-1.34 3-3z" fill="#e6e9ed"/><path d="m62 38v13c0 2.21-1.79 4-4 4h-16.06c-.41-3.79-2.95-7.06-6.61-8.35l-7.42-2.62-2.91-1.03v-2.45c1.1-.71 2.07-1.57 2.9-2.55z" fill="#fcd770"/><path d="m58 48v2c0 .55-.45 1-1 1h-6c-.55 0-1-.45-1-1v-2c0-.55.45-1 1-1h6c.55 0 1 .45 1 1z" fill="#e6e9ed"/><path d="m10 61.97h-8v-5.92c0-4.24 2.67-8.02 6.67-9.43l7.42-2.62.91 9.97 5-5 5 5 .91-9.97 7.42 2.62c3.66 1.29 6.2 4.56 6.61 8.35.04.35.06.72.06 1.08v5.92h-8z" fill="#5cd6b3"/><path d="m19 43 3 6-5 5-.91-9.97z" fill="#37bc9b"/><path d="m27.91 44.03-.91 9.97-5-5 3-6z" fill="#37bc9b"/><path d="m59 30.13c1.73.44 3 2.01 3 3.87v4h-34.1c.99-1.18 1.78-2.53 2.31-4h1.79 12l2.83-2.83c.75-.75 1.77-1.17 2.83-1.17h8.34c.35 0 .68.04 1 .13z" fill="#ffeaa7"/><g fill="#f0d0b4"><path d="m25 40.55v2.45l-3 6-3-6v-2.45c.92.6 1.92 1.09 3 1.45 1.08-.36 2.08-.85 3-1.45z"/><path d="m34.12 28.88c.54.54.88 1.29.88 2.12 0 1.66-1.34 3-3 3h-1.79c.51-1.41.79-2.93.79-4.49v-1.51h1c.83 0 1.58.34 2.12.88z"/><path d="m30.21 34c-.53 1.47-1.32 2.82-2.31 4-.83.98-1.8 1.84-2.9 2.55-.92.6-1.92 1.09-3 1.45-1.08-.36-2.08-.85-3-1.45-2.41-1.56-4.24-3.86-5.21-6.55-.51-1.41-.79-2.93-.79-4.49v-1.51-2l4-2c2.63 1.32 5.53 2 8.47 2h5.53v2 1.51c0 1.56-.28 3.08-.79 4.49z"/><path d="m13.79 34h-1.79c-.83 0-1.58-.34-2.12-.88s-.88-1.29-.88-2.12c0-1.66 1.34-3 3-3h1v1.51c0 1.56.28 3.08.79 4.49z"/></g><path d="m12 28c-1.66 0-3 1.34-3 3v-7.98c0-3.32 1.34-6.32 3.52-8.5s5.18-3.52 8.5-3.52c3.19 0 6.25 1.27 8.5 3.52l.48.48c1.16.23 2.19.77 3 1.53 1.24 1.15 2 2.78 2 4.57v9.9c0-.83-.34-1.58-.88-2.12s-1.29-.88-2.12-.88h-1v-2h-5.53c-2.94 0-5.84-.68-8.47-2l-4 2v2z" fill="#b27946"/><circle cx="46" cy="15" fill="#ffeaa7" r="9"/><path d="m52.71 21c-1.65 1.84-4.05 3-6.71 3s-5.06-1.16-6.71-3l.01-.01c.86-2.89 3.53-4.99 6.7-4.99s5.84 2.1 6.7 4.99z" fill="#5cd6b3"/><circle cx="46" cy="13" fill="#f0d0b4" r="3"/></g><g><path d="m46 25c5.514 0 10-4.486 10-10s-4.486-10-10-10-10 4.486-10 10 4.486 10 10 10zm-5.542-4.244c.908-2.231 3.101-3.756 5.542-3.756 2.44 0 4.634 1.525 5.542 3.757-1.44 1.385-3.391 2.243-5.542 2.243s-4.103-.858-5.542-2.244zm3.542-7.756c0-1.103.897-2 2-2s2 .897 2 2-.897 2-2 2-2-.897-2-2zm2-6c4.411 0 8 3.589 8 8 0 1.466-.403 2.837-1.095 4.02-.894-1.539-2.274-2.731-3.906-3.402.615-.703 1.001-1.612 1.001-2.618 0-2.206-1.794-4-4-4s-4 1.794-4 4c0 1.006.386 1.915 1.001 2.618-1.632.671-3.012 1.863-3.906 3.402-.692-1.183-1.095-2.554-1.095-4.02 0-4.411 3.589-8 8-8z"/><path d="m25 36h-2c0 .551-.449 1-1 1s-1-.449-1-1h-2c0 1.654 1.346 3 3 3s3-1.346 3-3z"/><circle cx="18" cy="30" r="1"/><circle cx="26" cy="30" r="1"/><path d="m60 29.424v-28.424h-28v13.663c-.474-.238-.968-.445-1.499-.576l-.273-.273c-2.459-2.46-5.729-3.814-9.207-3.814-7.18 0-13.021 5.841-13.021 13.021v7.979c0 2.206 1.794 4 4 4h1.104c1.023 2.438 2.719 4.546 4.896 6.08v1.213l-9.661 3.41c-4.39 1.548-7.339 5.717-7.339 10.372v6.925h42v-6.925c0-.025-.003-.05-.003-.075h15.003c2.757 0 5-2.243 5-5v-17c0-2.045-1.237-3.802-3-4.576zm1 4.576v3h-31.141c.397-.637.745-1.305 1.037-2h1.104 12.414l3.122-3.122c.558-.558 1.331-.878 2.121-.878h8.343c1.654 0 3 1.346 3 3zm-29-4.487v-.513c1.103 0 2 .897 2 2s-.897 2-2 2h-.439c.285-1.122.439-2.29.439-3.487zm26-26.513v26h-8.343c-1.335 0-2.591.52-3.535 1.464l-2.536 2.536h-8.142c.344-.591.556-1.268.556-2v-9.901c0-1.897-.764-3.639-2-4.946v-13.153zm-36.979 9c2.944 0 5.711 1.146 7.793 3.228l.693.693.297.059c2.431.487 4.196 2.64 4.196 5.119v6.457c-.591-.344-1.268-.556-2-.556v-2h-6.528c-2.772 0-5.547-.655-8.025-1.895l-.447-.223-5 2.5v1.618c-.732 0-1.409.212-2 .556v-4.535c0-6.077 4.944-11.021 11.021-11.021zm-9.021 21c-1.103 0-2-.897-2-2s.897-2 2-2v.513c0 1.197.154 2.365.439 3.487zm2-3.487v-2.895l3.007-1.504c2.638 1.236 5.553 1.886 8.465 1.886h4.528v2.513c0 5.131-3.201 9.682-8 11.428-4.799-1.746-8-6.296-8-11.428zm11.5 14.724 1.341.473-.643 7.073-2.98-2.98zm-3.816-1.288.316.105.316-.105c.583-.194 1.141-.433 1.684-.695v.51l-2 4-2-4v-.51c.543.262 1.101.5 1.684.695zm-3.184 1.288 2.283 4.566-2.98 2.98-.643-7.073zm22.5 16.763h-6v-4.171c0-1.557.606-3.021 1.707-4.122l-1.414-1.414c-1.479 1.478-2.293 3.444-2.293 5.536v4.171h-22v-4.171c0-2.091-.814-4.057-2.293-5.536l-1.414 1.414c1.101 1.101 1.707 2.564 1.707 4.122v4.171h-6v-4.925c0-3.809 2.413-7.22 6.005-8.487l6.209-2.191.984 10.82 5.802-5.803 5.803 5.803.984-10.82 6.209 2.191c3.591 1.267 6.004 4.679 6.004 8.487zm17-7h-15.206c-.73-3.782-3.409-6.984-7.133-8.298l-9.661-3.41v-1.212c.862-.608 1.646-1.306 2.345-2.08h32.655v12c0 1.654-1.346 3-3 3z"/><path d="m53 33h2v2h-2z"/><path d="m49 33h2v2h-2z"/><path d="m57 33h2v2h-2z"/><path d="m57 46h-6c-1.103 0-2 .897-2 2v2c0 1.103.897 2 2 2h6c1.103 0 2-.897 2-2v-2c0-1.103-.897-2-2-2zm-6 4v-2h6l.001 2z"/></g></g></svg>